Patient4_TMGait_0pt4_02_left_33_GRF.mot
version=1
nRows=32
nColumns=19
inDegrees=no
endheader
time	F1x	F1y	F1z	M1x	M1y	M1z	F2x	F2y	F2z	M2x	M2y	M2z	EC1x	EC1y	EC1z	EC2x	EC2y	EC2z
44.18	2.2299	-5.4779	5.5565	0.37083	-3.4136	-1.8458	-19.2203	730.8048	-72.4914	262.8377	81.1614	772.052	-0.0592	0.0182	-0.0073	-0.0462	0.0165	0.9585
44.1929	1.3897	-3.0619	3.7345	0.040231	-2.3575	-0.5863	-15.8478	727.4576	-70.7514	262.1345	78.8071	770.7353	-0.0592	0.0182	-0.0073	-0.0462	0.0165	0.9585
44.2059	0.72727	-1.0211	2.2275	-0.24944	-1.4812	0.46403	-12.7787	726.594	-68.8361	262.3117	76.2276	770.9153	-0.0592	0.0182	-0.0073	-0.0462	0.0165	0.9585
44.2188	0.26454	0.53251	1.0975	-0.48055	-0.81994	1.2574	-10.2384	728.9155	-66.9265	263.6043	73.6589	773.2382	-0.0592	0.0182	-0.0073	-0.0462	0.0165	0.9585
44.2317	-0.045073	1.6248	0.33539	-0.65256	-0.37936	1.8404	-8.2717	734.5545	-65.1989	266.0517	71.3067	777.9673	-0.0592	0.0182	-0.0073	-0.0462	0.0165	0.9585
44.2446	-0.2184	2.3163	-0.12713	-0.76771	-0.11446	2.224	-6.7924	743.0842	-63.8091	269.4938	69.3254	784.8714	-0.0592	0.0182	-0.0073	-0.0462	0.0165	0.9585
44.2576	-0.31501	2.6925	-0.3604	-0.83056	0.008799	2.4545	-5.66	753.5984	-62.8477	273.5997	67.7857	793.2315	-0.0592	0.0182	-0.0073	-0.0462	0.0165	0.9585
44.2705	-0.35844	2.8122	-0.44407	-0.84108	0.041269	2.5272	-4.706	764.879	-62.3345	277.925	66.6764	801.9821	-0.0592	0.0182	-0.0073	-0.0462	0.0165	0.9585
44.2834	-0.39009	2.6947	-0.4298	-0.79157	0.0064058	2.4195	-3.7951	775.5819	-62.2284	281.98	65.9324	809.9103	-0.0592	0.0182	-0.0073	-0.0462	0.0165	0.9585
44.2964	-0.43672	2.3294	-0.36959	-0.66921	-0.065188	2.0777	-2.8468	784.352	-62.4575	285.2798	65.4727	815.7523	-0.0592	0.0182	-0.0073	-0.0462	0.0165	0.9585
44.3093	-0.51202	1.6845	-0.28448	-0.45611	-0.16402	1.4341	-1.8629	790.0042	-62.9221	287.4058	65.2147	818.4003	-0.0592	0.0182	-0.0073	-0.0462	0.0165	0.9585
44.3222	-0.62294	0.71628	-0.20508	-0.13137	-0.26561	0.42924	-0.8417	791.7106	-63.5076	288.0748	65.0599	817.0783	-0.0592	0.0182	-0.0073	-0.0462	0.0165	0.9585
44.3351	-0.74416	-0.61934	-0.1431	0.32229	-0.34771	-1.0063	0.21395	789.1681	-64.0909	287.1964	64.9044	811.5251	-0.0592	0.0182	-0.0073	-0.0462	0.0165	0.9585
44.3481	-0.8439	-2.2984	-0.11414	0.89968	-0.3861	-2.8453	1.3055	782.6493	-64.5846	284.8889	64.6761	802.0381	-0.0592	0.0182	-0.0073	-0.0462	0.0165	0.9585
44.361	-0.8429	-4.2271	-0.13268	1.5686	-0.33894	-4.9926	2.4555	773.0092	-64.9638	281.4764	64.3468	789.483	-0.0592	0.0182	-0.0073	-0.0462	0.0165	0.9585
44.3739	-0.65046	-6.1403	-0.22112	2.2372	-0.14888	-7.15	3.7011	761.5546	-65.267	277.4368	63.9358	775.1704	-0.0592	0.0182	-0.0073	-0.0462	0.0165	0.9585
44.3869	-0.13713	-7.5497	-0.40639	2.7343	0.25959	-8.7663	5.1072	749.7169	-65.5834	273.2871	63.5018	760.5218	-0.0592	0.0182	-0.0073	-0.0462	0.0165	0.9585
44.3998	0.8478	-7.6852	-0.71649	2.787	0.96823	-8.9528	6.7262	738.8235	-66.0125	269.4983	63.1118	746.8629	-0.0592	0.0182	-0.0073	-0.0462	0.0165	0.9585
44.4127	2.4522	-5.4284	-1.1773	2.0024	2.0513	-6.423	8.6168	729.8303	-66.6102	266.4029	62.7871	735.143	-0.0592	0.0182	-0.0073	-0.0462	0.0165	0.9585
44.4256	4.7959	0.68941	-1.7911	-0.13109	3.5464	0.50737	10.7581	723.0996	-67.3618	264.1123	62.5077	725.7396	-0.0592	0.0182	-0.0073	-0.0462	0.0165	0.9585
44.4386	7.8963	12.3906	-2.5352	-4.2104	5.4264	13.8209	13.0805	718.2484	-68.1971	262.4629	62.228	718.3143	-0.0592	0.0182	-0.0073	-0.0462	0.0165	0.9585
44.4515	11.5945	31.4028	-3.3186	-10.8342	7.526	35.4889	15.4177	714.1277	-69.0036	261.0127	61.9066	711.8046	-0.0592	0.0182	-0.0073	-0.0462	0.0165	0.9585
44.4644	15.4352	59.0508	-3.9704	-20.458	9.485	67.0247	17.5056	708.985	-69.6063	259.1088	61.4816	704.5738	-0.0592	0.0182	-0.0073	-0.0462	0.0165	0.9585
44.4774	18.5501	95.5109	-4.1966	-33.1382	10.6674	108.6378	19.0601	700.7828	-69.7498	256.0036	60.827	694.7199	-0.0592	0.0182	-0.0073	-0.0462	0.0165	0.9585
44.4903	19.6433	138.9355	-3.6021	-48.2261	10.1831	158.2363	19.8265	687.5295	-69.1615	250.9787	59.7881	680.381	-0.0592	0.0182	-0.0073	-0.0462	0.0165	0.9585
44.5032	17.6859	184.9796	-1.7153	-64.1912	7.1693	210.8801	19.6722	667.7426	-67.6122	243.5199	58.2059	660.1272	-0.0592	0.0182	-0.0073	-0.0462	0.0165	0.9585
44.5161	13.3087	228.3244	1.8451	-79.166	1.4846	260.4494	18.6459	641.0354	-65.016	233.5214	55.9937	633.5403	-0.0592	0.0182	-0.0073	-0.0462	0.0165	0.9585
44.5291	7.8724	266.321	6.5146	-92.2426	-5.7377	303.7056	17.0233	608.3196	-61.4697	221.3506	53.1562	601.3923	-0.0592	0.0182	-0.0073	-0.0462	0.0165	0.9585
44.542	2.6363	299.3145	11.8168	-103.5471	-13.5159	340.8258	15.1782	571.3108	-57.2575	207.6597	49.8248	565.2199	-0.0592	0.0182	-0.0073	-0.0462	0.0165	0.9585
44.5549	-1.6388	328.7481	17.2337	-113.6046	-21.0033	373.3927	13.4974	531.7478	-52.6548	193.1042	46.1095	526.5824	-0.0592	0.0182	-0.0073	-0.0462	0.0165	0.9585
44.5679	-4.7415	356.2621	22.3894	-123.0028	-27.7034	403.2841	12.212	490.9767	-47.7854	178.1895	42.0301	486.6988	-0.0592	0.0182	-0.0073	-0.0462	0.0165	0.9585
44.5808	-6.7929	383.0951	26.9148	-132.1885	-33.2568	431.9629	11.402	449.8766	-42.6571	163.2416	37.5528	446.3839	-0.0592	0.0182	-0.0073	-0.0462	0.0165	0.9585
